<?xml version="1.0" encoding="utf-8"?>
<!-- Generator: Adobe Illustrator 16.0.3, SVG Export Plug-In . SVG Version: 6.00 Build 0)  -->
<!DOCTYPE svg PUBLIC "-//W3C//DTD SVG 1.0//EN" "http://www.w3.org/TR/2001/REC-SVG-20010904/DTD/svg10.dtd">
<svg version="1.0" id="Layer_1" xmlns="http://www.w3.org/2000/svg" xmlns:xlink="http://www.w3.org/1999/xlink" x="0px" y="0px"
	 width="128px" height="128px" viewBox="0 0 128 128" enable-background="new 0 0 128 128" xml:space="preserve">
<path fill="#2E3192" d="M128,115.182c0,7.312-5.942,12.818-13.228,12.818H13.192C5.906,128,0,122.493,0,115.182V13.239
	C0,5.927,5.906,0,13.192,0h101.58C122.058,0,128,5.927,128,13.239V115.182z"/>
<path fill="#1BD9FE" d="M124,111.685c0,6.812-5.909,12.315-12.696,12.315h-94.64C9.875,124,4,118.496,4,111.685V16.708
	C4,9.895,9.875,4,16.664,4h94.64C118.091,4,124,9.895,124,16.708V111.685z"/>
<path fill="#55A2FF" d="M122,110.42c0,6.631-5.344,11.58-11.951,11.58H17.92C11.312,122,6,117.051,6,110.42V17.962
	C6,11.331,11.312,6,17.92,6h92.129C116.656,6,122,11.331,122,17.962V110.42z"/>
<g id="i" display="none">
	<path display="inline" fill="#FFFFFF" d="M73.829,88.147c0,1.913,0.034,3.695,0.111,5.345c0.071,1.651,0.4,2.997,0.987,4.041
		c0.294,0.435,1.354,0.827,3.191,1.173c1.829,0.349,3.771,0.586,5.825,0.716c2.052,0.131,3.519,0.196,4.4,0.196
		c0.439,0.348,0.692,0.957,0.768,1.825c0.071,0.869-0.185,1.476-0.768,1.824c-4.4-0.174-8.248-0.324-11.547-0.455
		c-3.3-0.13-7.075-0.195-11.325-0.195c-4.106,0-7.845,0.065-11.215,0.195c-3.375,0.131-7.257,0.281-11.656,0.455
		c-0.587-0.349-0.845-0.955-0.769-1.824c0.072-0.868,0.33-1.478,0.769-1.825c0.88,0,2.381-0.065,4.508-0.196
		c2.124-0.13,4.141-0.367,6.047-0.716c1.904-0.346,2.931-0.738,3.079-1.173c0.584-1.044,0.914-2.39,0.989-4.041
		c0.072-1.649,0.11-3.432,0.11-5.345V64.42c0-0.867-0.038-1.998-0.11-3.389c-0.076-1.389-0.405-2.477-0.989-3.259
		c-0.44-0.782-1.687-1.324-3.738-1.629c-2.055-0.303-4.106-0.477-6.158-0.522c-2.055-0.042-3.374-0.065-3.958-0.065
		c-0.147-0.173-0.295-0.694-0.439-1.564c-0.148-0.868,0-1.477,0.439-1.826c5.57-0.434,10.996-1.085,16.273-1.955
		c5.278-0.868,10.04-1.998,14.294-3.39c0.583,0,1.135,0.261,1.65,0.782c0.512,0.521,0.768,0.957,0.768,1.304
		c0,0.261-0.146,1-0.439,2.216c-0.293,1.218-0.548,2.435-0.769,3.651c-0.219,1.218-0.33,2.043-0.33,2.476V88.147z M53.157,30.648
		c0-2.621,1.062-4.884,3.189-6.786c2.124-1.9,4.653-2.853,7.587-2.853c2.932,0,5.461,0.952,7.587,2.853
		c2.123,1.902,3.188,4.165,3.188,6.786c0,2.625-1.064,4.887-3.188,6.787c-2.126,1.903-4.655,2.853-7.587,2.853
		c-2.935,0-5.464-0.95-7.587-2.853C54.219,35.535,53.157,33.273,53.157,30.648z"/>
</g>
<g id="p" display="none">
	<path display="inline" fill="#FFFFFF" d="M68.479,73.713H52.941v23.709c0,3.39-0.8,5.961-2.399,7.712s-3.619,2.628-6.056,2.628
		c-2.552,0-4.609-0.867-6.17-2.6c-1.562-1.732-2.342-4.274-2.342-7.627V32.98c0-3.732,0.857-6.398,2.571-7.998
		s4.437-2.399,8.169-2.399h21.765c6.438,0,11.389,0.496,14.854,1.485c3.428,0.953,6.389,2.533,8.885,4.742
		c2.494,2.209,4.389,4.913,5.684,8.112s1.943,6.798,1.943,10.797c0,8.532-2.629,14.996-7.885,19.396
		C86.704,71.514,78.878,73.713,68.479,73.713z M64.366,35.322H52.941v25.594h11.425c4,0,7.342-0.418,10.027-1.257
		c2.686-0.837,4.732-2.208,6.141-4.113c1.408-1.904,2.113-4.399,2.113-7.484c0-3.694-1.084-6.703-3.256-9.026
		C76.954,36.561,71.946,35.322,64.366,35.322z"/>
</g>
<g id="uimari_1_">
	<g id="uimari">
		<polygon fill="#FFFFFF" stroke="#FFFFFF" stroke-linejoin="round" stroke-miterlimit="10" points="50.042,79.667 57.96,63.5 
			74.617,63.5 83.625,82 71.625,78.334 56.5,82.5 		"/>
		<circle fill="#FFFFFF" stroke="#FFFFFF" stroke-miterlimit="10" cx="66.764" cy="49.897" r="10.708"/>
		<polyline fill="none" stroke="#FFFFFF" stroke-width="7" stroke-linecap="round" stroke-miterlimit="10" points="75.877,66.1 
			92.179,56.342 100.793,36.333 		"/>
		<polyline fill="none" stroke="#FFFFFF" stroke-width="7" stroke-linecap="round" stroke-miterlimit="10" points="56.274,65.856 
			39.502,56.1 29.166,36.333 		"/>
	</g>
	<g>
		<path fill="none" stroke="#55A2FF" stroke-width="3" stroke-miterlimit="10" d="M11,73.5c7.57,0,7.57,6,15.14,6
			c7.571,0,7.571-6,15.143-6c7.569,0,7.569,6,15.138,6c7.572,0,7.572-6,15.143-6c7.572,0,7.572,6,15.145,6c7.573,0,7.573-6,15.146-6
			c7.573,0,7.573,6,15.146,6"/>
	</g>
	<g>
		<path fill="none" stroke="#FFFFFF" stroke-width="6" stroke-linecap="round" stroke-miterlimit="10" d="M11,77.5
			c7.57,0,7.57,6,15.14,6c7.571,0,7.571-6,15.143-6c7.569,0,7.569,6,15.138,6c7.572,0,7.572-6,15.143-6c7.572,0,7.572,6,15.145,6
			c7.573,0,7.573-6,15.146-6c7.573,0,7.573,6,15.146,6"/>
	</g>
	<g>
		<path fill="none" stroke="#FFFFFF" stroke-width="5" stroke-linecap="round" stroke-miterlimit="10" d="M11,90.5
			c7.57,0,7.57,6,15.14,6c7.571,0,7.571-6,15.143-6c7.569,0,7.569,6,15.138,6c7.572,0,7.572-6,15.143-6c7.572,0,7.572,6,15.145,6
			c7.573,0,7.573-6,15.146-6c7.573,0,7.573,6,15.146,6"/>
	</g>
</g>
</svg>
